<?xml version="1.0" encoding="UTF-8" standalone="no"?>
<!-- Created with Inkscape (http://www.inkscape.org/) -->

<svg
   xmlns:dc="http://purl.org/dc/elements/1.1/"
   xmlns:cc="http://creativecommons.org/ns#"
   xmlns:rdf="http://www.w3.org/1999/02/22-rdf-syntax-ns#"
   xmlns:svg="http://www.w3.org/2000/svg"
   xmlns="http://www.w3.org/2000/svg"
   xmlns:xlink="http://www.w3.org/1999/xlink"
   xmlns:sodipodi="http://sodipodi.sourceforge.net/DTD/sodipodi-0.dtd"
   xmlns:inkscape="http://www.inkscape.org/namespaces/inkscape"
   version="1.1"
   width="157.44603"
   height="140.8777"
   id="svg3965"
   inkscape:version="0.48.4 r9939"
   sodipodi:docname="gnuradio_logo.svg"
   inkscape:export-filename="/home/marcus/Pictures/gnuradio_logo.png"
   inkscape:export-xdpi="19.200001"
   inkscape:export-ydpi="19.200001">
  <sodipodi:namedview
     pagecolor="#ffffff"
     bordercolor="#666666"
     borderopacity="1"
     objecttolerance="10"
     gridtolerance="10"
     guidetolerance="10"
     inkscape:pageopacity="0"
     inkscape:pageshadow="2"
     inkscape:window-width="1918"
     inkscape:window-height="1060"
     id="namedview78"
     showgrid="false"
     inkscape:zoom="2.1661538"
     inkscape:cx="-16.504313"
     inkscape:cy="6.3470181"
     inkscape:window-x="0"
     inkscape:window-y="18"
     inkscape:window-maximized="0"
     inkscape:current-layer="layer1-1"
     showguides="true"
     inkscape:guide-bbox="true"
     fit-margin-top="0"
     fit-margin-left="0"
     fit-margin-right="0"
     fit-margin-bottom="0" />
  <defs
     id="defs3967">
    <marker
       inkscape:stockid="Arrow1Send"
       orient="auto"
       refY="0"
       refX="0"
       id="Arrow1Send"
       style="overflow:visible">
      <path
         id="path4200"
         d="M 0,0 5,-5 -12.5,0 5,5 0,0 z"
         style="fill-rule:evenodd;stroke:#000000;stroke-width:1pt"
         transform="matrix(-0.2,0,0,-0.2,-1.2,0)"
         inkscape:connector-curvature="0" />
    </marker>
    <marker
       inkscape:stockid="Arrow1Lend"
       orient="auto"
       refY="0"
       refX="0"
       id="Arrow1Lend"
       style="overflow:visible">
      <path
         id="path4188"
         d="M 0,0 5,-5 -12.5,0 5,5 0,0 z"
         style="fill-rule:evenodd;stroke:#000000;stroke-width:1pt"
         transform="matrix(-0.8,0,0,-0.8,-10,0)"
         inkscape:connector-curvature="0" />
    </marker>
    <linearGradient
       id="linearGradient5027"
       x1="302.85999"
       gradientUnits="userSpaceOnUse"
       y1="366.64999"
       gradientTransform="matrix(2.7744,0,0,1.9697,-1892.2,-872.89)"
       x2="302.85999"
       y2="609.51001">
      <stop
         id="stop5050"
         stop-opacity="0"
         offset="0" />
      <stop
         id="stop5056"
         offset=".5" />
      <stop
         id="stop5052"
         stop-opacity="0"
         offset="1" />
    </linearGradient>
    <radialGradient
       id="radialGradient5029"
       xlink:href="#linearGradient5060"
       gradientUnits="userSpaceOnUse"
       cy="486.64999"
       cx="605.71002"
       gradientTransform="matrix(2.7744,0,0,1.9697,-1891.6,-872.89)"
       r="117.14" />
    <linearGradient
       id="linearGradient5060">
      <stop
         id="stop5062"
         offset="0" />
      <stop
         id="stop5064"
         stop-opacity="0"
         offset="1" />
    </linearGradient>
    <radialGradient
       id="radialGradient5031"
       xlink:href="#linearGradient5060"
       gradientUnits="userSpaceOnUse"
       cy="486.64999"
       cx="605.71002"
       gradientTransform="matrix(-2.7744,0,0,1.9697,112.76,-872.89)"
       r="117.14" />
    <linearGradient
       id="linearGradient3048">
      <stop
         id="stop3050"
         offset="0" />
      <stop
         id="stop3052"
         stop-opacity="0"
         offset="1" />
    </linearGradient>
    <linearGradient
       id="linearGradient2212"
       x1="25.861"
       gradientUnits="userSpaceOnUse"
       y1="26.134001"
       gradientTransform="matrix(0.95239,0,0,1.0183,1.1426,-1.9416)"
       x2="18.299999"
       y2="19.568001">
      <stop
         id="stop2208"
         stop-color="#c3c6c0"
         offset="0" />
      <stop
         id="stop2210"
         stop-color="#e8eae6"
         offset="1" />
    </linearGradient>
    <linearGradient
       id="linearGradient2220"
       x1="0.0012142"
       gradientUnits="userSpaceOnUse"
       y1="24.011999"
       gradientTransform="matrix(0.95239,0,0,1.0183,1.1426,-1.9416)"
       x2="47.999001"
       y2="24.011999">
      <stop
         id="stop2216"
         stop-color="#a9aaa7"
         offset="0" />
      <stop
         id="stop2218"
         stop-color="#676964"
         offset="1" />
    </linearGradient>
    <radialGradient
       id="radialGradient2229"
       gradientUnits="userSpaceOnUse"
       cy="32.266998"
       cx="23.993999"
       gradientTransform="matrix(1.7686,0,0,1.3871,-18.442,-15.293)"
       r="19.089001">
      <stop
         id="stop2224"
         stop-color="#5187d6"
         offset="0"
         style="stop-color:#d68551;stop-opacity:1;" />
      <stop
         id="stop2227"
         stop-color="#1e4580"
         offset="1"
         style="stop-color:#80521e;stop-opacity:1;" />
    </radialGradient>
    <linearGradient
       id="linearGradient2244"
       x1="20.339001"
       gradientUnits="userSpaceOnUse"
       y1="19.636999"
       gradientTransform="matrix(0.95239,0,0,1.0157,1.1426,-0.87632)"
       x2="46.091999"
       y2="39.708">
      <stop
         id="stop2240"
         stop-color="#fff"
         offset="0" />
      <stop
         id="stop2242"
         stop-color="#fff"
         stop-opacity="0"
         offset="1" />
    </linearGradient>
    <linearGradient
       id="linearGradient1340"
       x1="8.8207998"
       gradientUnits="userSpaceOnUse"
       y1="12.538"
       gradientTransform="matrix(3.8095,0,0,1.7503,-16,-15.787)"
       x2="12.499"
       y2="24.238001">
      <stop
         id="stop2182"
         stop-color="#fff"
         offset="0" />
      <stop
         id="stop2184"
         stop-color="#fff"
         stop-opacity="0"
         offset="1" />
    </linearGradient>
    <linearGradient
       id="linearGradient2231"
       y2="5.9589"
       gradientUnits="userSpaceOnUse"
       y1="37.334"
       x2="15.044"
       x1="35.694">
      <stop
         id="stop2225"
         stop-color="#fff"
         offset="0" />
      <stop
         id="stop2229"
         stop-color="#fff"
         stop-opacity="0"
         offset="1" />
    </linearGradient>
    <linearGradient
       inkscape:collect="always"
       xlink:href="#linearGradient5027"
       id="linearGradient3383"
       gradientUnits="userSpaceOnUse"
       gradientTransform="matrix(2.7744,0,0,1.9697,-1892.2,-872.89)"
       x1="302.85999"
       y1="366.64999"
       x2="302.85999"
       y2="609.51001" />
    <radialGradient
       inkscape:collect="always"
       xlink:href="#linearGradient5060"
       id="radialGradient3385"
       gradientUnits="userSpaceOnUse"
       gradientTransform="matrix(2.7744,0,0,1.9697,-1891.6,-872.89)"
       cx="605.71002"
       cy="486.64999"
       r="117.14" />
    <radialGradient
       inkscape:collect="always"
       xlink:href="#linearGradient5060"
       id="radialGradient3387"
       gradientUnits="userSpaceOnUse"
       gradientTransform="matrix(-2.7744,0,0,1.9697,112.76,-872.89)"
       cx="605.71002"
       cy="486.64999"
       r="117.14" />
    <linearGradient
       inkscape:collect="always"
       xlink:href="#linearGradient2212"
       id="linearGradient3389"
       gradientUnits="userSpaceOnUse"
       gradientTransform="matrix(0.95239,0,0,1.0183,1.1426,-1.9416)"
       x1="25.861"
       y1="26.134001"
       x2="18.299999"
       y2="19.568001" />
    <linearGradient
       inkscape:collect="always"
       xlink:href="#linearGradient2220"
       id="linearGradient3391"
       gradientUnits="userSpaceOnUse"
       gradientTransform="matrix(0.95239,0,0,1.0183,1.1426,-1.9416)"
       x1="0.0012142"
       y1="24.011999"
       x2="47.999001"
       y2="24.011999" />
    <radialGradient
       inkscape:collect="always"
       xlink:href="#radialGradient2229"
       id="radialGradient3393"
       gradientUnits="userSpaceOnUse"
       gradientTransform="matrix(1.7686,0,0,1.3871,-18.442,-15.293)"
       cx="23.993999"
       cy="32.266998"
       r="19.089001" />
    <linearGradient
       inkscape:collect="always"
       xlink:href="#linearGradient2244"
       id="linearGradient3395"
       gradientUnits="userSpaceOnUse"
       gradientTransform="matrix(0.95239,0,0,1.0157,1.1426,-0.87632)"
       x1="20.339001"
       y1="19.636999"
       x2="46.091999"
       y2="39.708" />
    <linearGradient
       inkscape:collect="always"
       xlink:href="#linearGradient1340"
       id="linearGradient3397"
       gradientUnits="userSpaceOnUse"
       gradientTransform="matrix(3.8095,0,0,1.7503,-16.210022,-15.646985)"
       x1="8.8207998"
       y1="12.538"
       x2="12.499"
       y2="24.238001" />
    <linearGradient
       inkscape:collect="always"
       xlink:href="#linearGradient2231"
       id="linearGradient3399"
       gradientUnits="userSpaceOnUse"
       x1="35.694"
       y1="37.334"
       x2="15.044"
       y2="5.9589" />
  </defs>
  <metadata
     id="metadata3970">
    <rdf:RDF>
      <cc:Work
         rdf:about="">
        <dc:format>image/svg+xml</dc:format>
        <dc:type
           rdf:resource="http://purl.org/dc/dcmitype/StillImage" />
        <dc:title></dc:title>
      </cc:Work>
    </rdf:RDF>
  </metadata>
  <g
     transform="translate(-57.226591,-15.782324)"
     id="layer1">
    <g
       transform="translate(14,-8)"
       id="g4120">
      <g
         transform="matrix(2.3314286,0,0,2.3314286,88.175293,51.691206)"
         id="layer1-1">
        <g
           id="g4827"
           transform="matrix(1.0489471,0,0,1.0489471,-3.1262297,-13.187605)">
          <g
             transform="matrix(0.024545,0,0,0.020868,45.894,40.091)"
             id="g5022">
            <rect
               x="-1559.3"
               y="-150.7"
               width="1339.6"
               height="478.35999"
               style="opacity:0.40206;color:#000000;fill:url(#linearGradient3383)"
               id="rect4173" />
            <path
               d="m -219.62,-150.68 v 478.33 c 142.88,0.9 345.4,-107.17 345.4,-239.2 0,-132.02 -159.44,-239.13 -345.4,-239.13 z"
               style="opacity:0.40206;color:#000000;fill:url(#radialGradient3385)"
               id="path5058"
               inkscape:connector-curvature="0" />
            <path
               d="m -1559.3,-150.68 v 478.33 c -142.8,0.9 -345.4,-107.17 -345.4,-239.2 0,-132.02 159.5,-239.13 345.4,-239.13 z"
               style="opacity:0.40206;color:#000000;fill:url(#radialGradient3387)"
               id="path5018"
               inkscape:connector-curvature="0" />
          </g>
          <rect
             x="1.6199"
             y="1.6601"
             width="44.759998"
             height="41.702"
             ry="4.566"
             rx="4.566"
             id="rect1316"
             style="fill:url(#linearGradient3389);fill-rule:evenodd;stroke:url(#linearGradient3391);stroke-linecap:round;stroke-linejoin:round" />
          <rect
             x="5.4052"
             y="5.4815998"
             width="37.178001"
             height="28.955"
             ry="1.6947"
             rx="1.6947"
             id="rect1314"
             style="fill:url(#radialGradient3393);fill-rule:evenodd;stroke:#9a3d00;stroke-linecap:round;stroke-linejoin:round;stroke-opacity:1" />
          <path
             inkscape:connector-curvature="0"
             id="path4169"
             d="m 12.63277,10.247683 c -0.483389,0.02179 -0.747077,0.05777 -0.747077,0.05777 l -1.30283,0.163698 0.309764,2.753985 1.30283,-0.163699 c 0,0 15.164167,-2.050714 24.161562,13.702517 0.585027,1.024299 0.830268,1.806014 0.938401,2.301406 0.108133,0.49539 0.082,0.577758 0.082,0.577758 l -0.09111,1.386622 2.61477,0.202216 0.100217,-1.386622 c 0,0 0.0248,-0.614837 -0.14577,-1.39625 C 39.684963,27.665673 39.321063,26.592734 38.59825,25.327188 30.08161,10.4157 16.016496,10.095162 12.63277,10.247683 z"
             style="font-size:medium;font-style:normal;font-variant:normal;font-weight:normal;font-stretch:normal;text-indent:0;text-align:start;text-decoration:none;line-height:normal;letter-spacing:normal;word-spacing:normal;text-transform:none;direction:ltr;block-progression:tb;writing-mode:lr-tb;text-anchor:start;baseline-shift:baseline;color:#000000;fill:#ffe5d9;fill-opacity:1;stroke:#eac49b;stroke-width:0.68936819;stroke-miterlimit:4;stroke-dasharray:none;marker:none;visibility:visible;display:inline;overflow:visible;enable-background:accumulate;font-family:Sans;-inkscape-font-specification:Sans" />
          <rect
             x="2.5537"
             y="2.6544001"
             width="42.895"
             height="39.646999"
             ry="4.1303"
             rx="4.1303"
             id="rect2232"
             style="fill:none;stroke:url(#linearGradient3395);stroke-linecap:round;stroke-linejoin:round" />
          <g
             transform="translate(-80.254376,3.7282293)"
             style="fill:#ffe5d9;stroke:#eac49b;stroke-width:0.42892155;stroke-miterlimit:4;stroke-dasharray:none"
             id="g4813">
            <path
               inkscape:connector-curvature="0"
               id="path4179"
               d="m 88.84375,8.6414189 0,20.3125001 2.03125,0 0,-20.3125001 -2.03125,0 z"
               style="font-size:medium;font-style:normal;font-variant:normal;font-weight:normal;font-stretch:normal;text-indent:0;text-align:start;text-decoration:none;line-height:normal;letter-spacing:normal;word-spacing:normal;text-transform:none;direction:ltr;block-progression:tb;writing-mode:lr-tb;text-anchor:start;baseline-shift:baseline;color:#000000;fill:#ffe5d9;fill-opacity:1;stroke:#eac49b;stroke-width:0.42892155;stroke-miterlimit:4;stroke-dasharray:none;marker:none;visibility:visible;display:inline;overflow:visible;enable-background:accumulate;font-family:Sans;-inkscape-font-specification:Sans" />
            <path
               inkscape:connector-curvature="0"
               id="path4819"
               d="M 89.858832,9.4490121 91.863235,11.453415 89.858832,4.4380044 87.854429,11.453415 89.858832,9.4490121 z"
               style="fill:#ffe5d9;fill-rule:evenodd;stroke:#eac49b;stroke-width:0.42892155;stroke-miterlimit:4;stroke-dasharray:none" />
          </g>
          <path
             d="m 6.633778,7.1088147 v 8.8262003 c 3.6702,0.688 7.7392,1.08 12.031,1.08 8.935,0 16.937,-1.665 22.281,-4.278 V 7.1088147 h -34.312 z"
             id="rect2178"
             inkscape:connector-curvature="0"
             style="opacity:0.43182002;fill:url(#linearGradient3397);fill-opacity:1;fill-rule:evenodd" />
          <g
             transform="translate(0.1875,0.6875)"
             stroke-miterlimit="10"
             id="g3126"
             style="opacity:0.07954502;stroke:#000000;stroke-miterlimit:10">
            <path
               d="m 39.125,37.812 -1.063,-0.468 c -0.256,-0.14 -0.562,-0.219 -0.874,-0.219 -1.001,0 -1.813,0.812 -1.813,1.813 0,1 0.812,1.812 1.813,1.812 0.969,0 1.763,-0.762 1.812,-1.719 V 39 l 0.125,-1.188 z"
               style="color:#000000"
               id="path3120"
               inkscape:connector-curvature="0" />
            <path
               d="m 28.993,37.545 -0.1,1.165 c -0.037,0.29 -0.001,0.603 0.112,0.895 0.362,0.933 1.413,1.396 2.345,1.035 0.933,-0.362 1.397,-1.412 1.035,-2.345 -0.35,-0.904 -1.347,-1.37 -2.257,-1.069 -0.008,0.002 -0.022,0.009 -0.029,0.011 l -1.106,0.308 z"
               style="color:#000000"
               id="path3122"
               inkscape:connector-curvature="0" />
            <path
               d="M 25.5,37.812 24.562,37.344 C 24.306,37.204 24,37.125 23.688,37.125 c -1.001,0 -1.813,0.812 -1.813,1.813 0,1 0.812,1.812 1.813,1.812 0.969,0 1.763,-0.762 1.812,-1.719 v -1.219 z"
               style="color:#000000"
               id="path3124"
               inkscape:connector-curvature="0" />
          </g>
          <path
             stroke-miterlimit="10"
             d="m 39.125,37.812 -1.063,-0.468 c -0.256,-0.14 -0.562,-0.219 -0.874,-0.219 -1.001,0 -1.813,0.812 -1.813,1.813 0,1 0.812,1.812 1.813,1.812 0.969,0 1.763,-0.762 1.812,-1.719 V 39 l 0.125,-1.188 z"
             style="color:#000000;fill:#e0e2df;stroke:#9b9d99;stroke-miterlimit:10"
             id="path3111"
             inkscape:connector-curvature="0" />
          <path
             stroke-miterlimit="10"
             d="m 28.993,37.545 -0.1,1.165 c -0.037,0.29 -0.001,0.603 0.112,0.895 0.362,0.933 1.413,1.396 2.345,1.035 0.933,-0.362 1.397,-1.412 1.035,-2.345 -0.35,-0.904 -1.347,-1.37 -2.257,-1.069 -0.008,0.002 -0.022,0.009 -0.029,0.011 l -1.106,0.308 z"
             style="color:#000000;fill:#e0e2df;stroke:#9b9d99;stroke-miterlimit:10"
             id="path3116"
             inkscape:connector-curvature="0" />
          <path
             stroke-miterlimit="10"
             d="M 25.5,37.812 24.562,37.344 C 24.306,37.204 24,37.125 23.688,37.125 c -1.001,0 -1.813,0.812 -1.813,1.813 0,1 0.812,1.812 1.813,1.812 0.969,0 1.763,-0.762 1.812,-1.719 v -1.219 z"
             style="color:#000000;fill:#e0e2df;stroke:#9b9d99;stroke-miterlimit:10"
             id="path3118"
             inkscape:connector-curvature="0" />
          <rect
             x="4.3192"
             y="4.6357999"
             width="39.349998"
             height="30.646"
             ry="2.5697"
             rx="2.5697"
             id="rect2221"
             style="opacity:0.5738602;fill:none;stroke:url(#linearGradient3399);stroke-linecap:round;stroke-linejoin:round" />
          <g
             id="g4821"
             style="fill:#ffe5d9;stroke:#eac49b;stroke-width:0.42892155;stroke-miterlimit:4;stroke-dasharray:none"
             transform="matrix(0,1,-1,0,39.741828,-58.233466)">
            <path
               style="font-size:medium;font-style:normal;font-variant:normal;font-weight:normal;font-stretch:normal;text-indent:0;text-align:start;text-decoration:none;line-height:normal;letter-spacing:normal;word-spacing:normal;text-transform:none;direction:ltr;block-progression:tb;writing-mode:lr-tb;text-anchor:start;baseline-shift:baseline;color:#000000;fill:#ffe5d9;fill-opacity:1;stroke:#eac49b;stroke-width:0.47290987;stroke-miterlimit:4;stroke-dasharray:none;marker:none;visibility:visible;display:inline;overflow:visible;enable-background:accumulate;font-family:Sans;-inkscape-font-specification:Sans"
               d="m 88.865744,3.6928918 0,25.2390332 1.987262,0 0,-25.2390332 -1.987262,0 z"
               id="path4823"
               inkscape:connector-curvature="0" />
            <path
               style="fill:#ffe5d9;fill-rule:evenodd;stroke:#eac49b;stroke-width:0.42892155;stroke-miterlimit:4;stroke-dasharray:none"
               d="M 89.858832,3.8484247 91.863235,5.8528276 89.858832,-1.162583 87.854429,5.8528276 89.858832,3.8484247 z"
               id="path4825"
               inkscape:connector-curvature="0" />
          </g>
        </g>
      </g>
      <path
         d="m 114.1636,89.874976 c 3.50539,3.465 5.25827,7.69571 5.25827,12.691774 0,4.87524 -1.7426,9.05563 -5.2278,12.54083 -3.4852,3.4852 -7.64539,5.22779 -12.48024,5.22779 -3.39165,0 -6.447752,-0.82488 -9.167949,-2.47464 l -6.340748,6.34075 c 3.945473,4.48866 5.918032,9.83941 5.918032,16.05189 0,6.69649 -2.393504,12.43842 -7.180866,17.22578 -4.787008,4.78736 -10.501299,7.18087 -17.142874,7.18087 -6.751771,0 -12.535866,-2.38004 -17.350511,-7.13977 -4.815,-4.75937 -7.222323,-10.51511 -7.222323,-17.26688 0,-6.75248 2.324055,-12.53587 6.973582,-17.35087 4.648819,-4.815 10.349292,-7.22232 17.101417,-7.22232 5.988189,0 11.187992,1.78334 15.600827,5.34968 l 6.036023,-6.03567 c -3.409724,-3.437 -5.114409,-7.57948 -5.114409,-12.42744 0,-4.915634 1.692283,-9.126144 5.07685,-12.631534 0.314292,-0.32528 0.635315,-0.63567 0.962717,-0.93083 l -6.172795,-6.17279 c -2.681929,2.54799 -5.857441,3.82216 -9.526536,3.82216 -3.871062,0 -7.187598,-1.36453 -9.948188,-4.09358 -2.760945,-2.72906 -4.141418,-6.02929 -4.141418,-9.90071 0,-3.87142 1.332993,-7.18795 3.998622,-9.94854 2.66563,-2.76095 5.933977,-4.14142 9.805394,-4.14142 3.967086,0 7.330393,1.36488 10.091693,4.09394 2.760236,2.7287 4.140708,6.06082 4.140708,9.99602 0,2.69256 -0.674646,5.11583 -2.024291,7.27016 l 6.852756,6.85311 c 2.497677,-1.40351 5.301141,-2.10544 8.411457,-2.10544 5.03646,0 9.3072,1.73233 12.8126,5.19768 z M 74.164267,64.757896 c -2.189409,0 -4.030157,0.77704 -5.521535,2.3322 -1.491378,1.5548 -2.237244,3.4115 -2.237244,5.56937 0,2.22094 0.729921,4.07764 2.189764,5.56937 1.459842,1.49138 3.316181,2.23689 5.569015,2.23689 2.126339,0 3.927048,-0.76925 5.402835,-2.30846 1.475433,-1.53922 2.213149,-3.37182 2.213149,-5.4978 0,-1.0474 -0.190275,-2.04697 -0.571181,-2.99905 -0.380551,-0.95209 -0.920196,-1.77697 -1.618228,-2.47536 -0.698386,-0.72957 -1.531063,-1.31669 -2.499094,-1.76102 -0.967677,-0.44433 -1.943504,-0.66614 -2.927481,-0.66614 z m -6.364842,61.714484 c -3.818976,0 -7.028858,1.35567 -9.629645,4.06736 -2.601496,2.71205 -3.902244,5.94992 -3.902244,9.71363 0,3.87354 1.272755,7.11141 3.818976,9.71291 2.545512,2.60079 5.78374,3.90153 9.712913,3.90153 3.708071,0 6.848858,-1.34185 9.422362,-4.02661 2.57315,-2.6837 3.860433,-5.87976 3.860433,-9.58783 0,-1.82693 -0.332008,-3.56989 -0.996378,-5.23028 -0.664016,-1.66039 -1.604764,-3.09933 -2.822598,-4.31681 -1.217481,-1.27311 -2.670236,-2.29677 -4.358622,-3.07169 -1.687323,-0.77492 -3.389528,-1.16221 -5.105197,-1.16221 z M 101.71383,92.534226 c -2.780429,0 -5.11724,0.98681 -7.010784,2.96115 -1.893897,1.97433 -2.840669,4.33133 -2.840669,7.071374 0,2.82048 0.926575,5.17748 2.780079,7.07138 1.853504,1.89354 4.210512,2.84032 7.071374,2.84032 2.6993,0 4.98579,-0.97725 6.85949,-2.93138 1.87335,-1.95414 2.8102,-4.28067 2.8102,-6.98032 0,-1.3298 -0.24165,-2.599014 -0.72532,-3.807634 -0.4833,-1.20863 -1.16822,-2.25638 -2.05476,-3.14256 -0.88654,-0.92693 -1.94421,-1.67209 -3.17303,-2.23618 -1.22882,-0.56445 -2.46756,-0.84615 -3.71658,-0.84615 z"
         id="path3484"
         style="fill:#ff6905;fill-rule:evenodd"
         inkscape:connector-curvature="0" />
      <path
         d="m 49.293796,52.662816 c 4.548897,-8.03374 13.97622,-13.55421 24.865865,-13.55421 10.854212,0 20.255669,5.48503 24.821574,13.4759 l 5.541025,-5.68453 c -6.213544,-9.32279 -17.487993,-15.55547 -30.362599,-15.55547 -12.967086,0 -24.311338,6.32303 -30.49618,15.7578 l 5.630315,5.56051 z"
         id="path3486"
         style="fill:#ff6905;fill-rule:evenodd"
         inkscape:connector-curvature="0" />
      <path
         d="m 74.092693,44.893756 c -9.484725,0 -17.688189,4.48441 -21.598228,10.99595 l 5.61685,5.5474 c 2.163189,-5.05347 8.501457,-8.71335 15.981378,-8.71335 7.554684,0 13.94433,3.73358 16.044448,8.86536 l 5.554488,-5.69835 C 91.78159,49.378526 83.578125,44.893756 74.092693,44.893756 z"
         id="path3488"
         style="fill:#ff6905;fill-rule:evenodd"
         inkscape:connector-curvature="0" />
      <text
         x="173.22275"
         y="164.5569"
         id="text3496"
         style="font-size:17.76259804px;font-weight:bold;fill:#969594;fill-rule:evenodd;font-family:Harabara" />
      <text
         x="234.77316"
         y="164.5569"
         id="text3506"
         style="font-size:17.76259804px;font-weight:bold;fill:#969594;fill-rule:evenodd;font-family:Harabara" />
      <text
         x="257.70544"
         y="164.5569"
         id="text3510"
         style="font-size:17.76259804px;font-weight:bold;fill:#969594;fill-rule:evenodd;font-family:Harabara" />
      <text
         x="322.62241"
         y="164.5569"
         id="text3520"
         style="font-size:17.76259804px;font-weight:bold;fill:#969594;fill-rule:evenodd;font-family:Harabara" />
      <text
         x="451.09561"
         y="164.5569"
         id="text3538"
         style="font-size:17.76259804px;font-weight:bold;fill:#969594;fill-rule:evenodd;font-family:Harabara" />
      <text
         x="526.49011"
         y="164.5569"
         id="text3550"
         style="font-size:17.76259804px;font-weight:bold;fill:#969594;fill-rule:evenodd;font-family:Harabara" />
      <text
         x="665.89447"
         y="164.5569"
         id="text3570"
         style="font-size:17.76259804px;font-weight:bold;fill:#969594;fill-rule:evenodd;font-family:Harabara" />
      <g
         id="layer1-5"
         transform="matrix(0.04952946,0,0,0.04952946,23.828133,239.77127)">
        <g
           id="g4013"
           transform="matrix(18.312,0,0,18.312,1759.4067,-19919.723)"
           style="fill:#ff6905">
          <g
             id="g4017"
             style="fill:#ff6905">
            <rect
               id="rect4009"
               ry="1.2627"
               transform="translate(0,949.6)"
               height="8.3338003"
               width="9.849"
               y="-9.3710003"
               x="-52.653999"
               style="fill:#ff6905" />
            <rect
               id="rect4011"
               transform="translate(0,949.6)"
               ry="0"
               height="2.9042001"
               width="3.7881"
               y="-1.2266999"
               x="-49.624001"
               style="fill:#ff6905" />
          </g>
        </g>
        <g
           id="g4021"
           transform="matrix(9.1687,-9.1687,9.1687,9.1687,-7716.0733,-11517.823)"
           style="fill:#ff6905">
          <g
             id="g4023"
             style="fill:#ff6905">
            <rect
               id="rect4025"
               transform="translate(0,949.6)"
               ry="1.2627"
               height="8.3338003"
               width="9.849"
               y="-9.3710003"
               x="-52.653999"
               style="fill:#ff6905" />
            <rect
               id="rect4027"
               ry="0"
               transform="translate(0,949.6)"
               height="2.9042001"
               width="3.7881"
               y="-1.2266999"
               x="-49.624001"
               style="fill:#ff6905" />
          </g>
        </g>
        <g
           style="stroke:#000000"
           id="g4243"
           transform="translate(1363.1267,-2220.723)">
          <path
             style="fill:none;stroke:#ff6905;stroke-width:25.45299911"
             inkscape:connector-curvature="0"
             id="path4029"
             transform="matrix(1.4389,0,0,1.4389,-406.93,167.22)"
             d="m -22.855,28.257 a 24.749,24.749 0 1 1 -49.497,0 24.749,24.749 0 1 1 49.497,0 z" />
          <path
             style="fill:#ff6905;stroke:#ff6905;stroke-width:11.55417728px"
             inkscape:connector-curvature="0"
             id="path4031"
             d="m -486.44066,157.87091 5.68702,-207.224855 5.55158,-10.636284 5.37102,10.636284 5.313,207.224855 z" />
        </g>
        <path
           style="fill:none;stroke:#ffffff;stroke-width:39.43107986;stroke-linecap:square;stroke-miterlimit:4;stroke-dasharray:none"
           inkscape:connector-curvature="0"
           id="path4061"
           d="m 887.8167,-2407.193 v 44.106" />
        <path
           style="fill:none;stroke:#ffffff;stroke-width:39.43107986;stroke-linecap:square;stroke-miterlimit:4;stroke-dasharray:none"
           inkscape:connector-curvature="0"
           id="path4065"
           d="m 1281.5257,-2013.483 h -44.105" />
        <path
           style="fill:none;stroke:#ffffff;stroke-width:39.43107986;stroke-linecap:square;stroke-miterlimit:4;stroke-dasharray:none"
           inkscape:connector-curvature="0"
           id="path4067"
           d="m 887.8167,-1619.773 v -44.105" />
        <path
           style="fill:none;stroke:#ffffff;stroke-width:39.43107986;stroke-linecap:square;stroke-miterlimit:4;stroke-dasharray:none"
           inkscape:connector-curvature="0"
           id="path4069"
           d="m 494.0967,-2013.483 h 44.105" />
        <path
           style="fill:none;stroke:#ffffff;stroke-width:39.43107986;stroke-linecap:square;stroke-miterlimit:4;stroke-dasharray:none"
           inkscape:connector-curvature="0"
           id="path4071"
           d="m 1084.6667,-2354.443 -22.053,38.196" />
        <path
           style="fill:none;stroke:#ffffff;stroke-width:39.43107986;stroke-linecap:square;stroke-miterlimit:4;stroke-dasharray:none"
           inkscape:connector-curvature="0"
           id="path4073"
           d="m 1228.7767,-2210.339 -38.2,22.053" />
        <path
           style="fill:none;stroke:#ffffff;stroke-width:39.43107986;stroke-linecap:square;stroke-miterlimit:4;stroke-dasharray:none"
           inkscape:connector-curvature="0"
           id="path4075"
           d="m 1228.7767,-1816.623 -38.196,-22.053" />
        <path
           style="fill:none;stroke:#ffffff;stroke-width:39.43107986;stroke-linecap:square;stroke-miterlimit:4;stroke-dasharray:none"
           inkscape:connector-curvature="0"
           id="path4077"
           d="m 1084.6667,-1672.513 -22.053,-38.197" />
        <path
           style="fill:none;stroke:#ffffff;stroke-width:39.43107986;stroke-linecap:square;stroke-miterlimit:4;stroke-dasharray:none"
           inkscape:connector-curvature="0"
           id="path4079"
           d="m 690.9567,-1672.513 22.053,-38.197" />
        <path
           style="fill:none;stroke:#ffffff;stroke-width:39.43107986;stroke-linecap:square;stroke-miterlimit:4;stroke-dasharray:none"
           inkscape:connector-curvature="0"
           id="path4081"
           d="m 546.8467,-1816.623 38.197,-22.053" />
        <path
           style="fill:none;stroke:#ffffff;stroke-width:39.43107986;stroke-linecap:square;stroke-miterlimit:4;stroke-dasharray:none"
           inkscape:connector-curvature="0"
           id="path4083"
           d="m 546.8467,-2210.339 38.2,22.053" />
        <path
           style="fill:none;stroke:#000000;stroke-width:9.1559"
           inkscape:connector-curvature="0"
           id="path4085"
           d="m 690.9567,-2354.443 22.053,38.197" />
        <path
           style="fill:none;stroke:#ffffff;stroke-width:39.43107986;stroke-linecap:square;stroke-miterlimit:4;stroke-dasharray:none"
           inkscape:connector-curvature="0"
           id="path4087"
           d="m 690.9567,-2354.443 22.053,38.197" />
      </g>
    </g>
  </g>
</svg>
